<svg width="13" height="12" viewBox="0 0 13 12" fill="none" xmlns="http://www.w3.org/2000/svg">
<path d="M6.39492 2.24002C6.02771 2.24002 5.66875 2.35204 5.36342 2.56191C5.0581 2.77179 4.82013 3.07009 4.6796 3.4191C4.53907 3.7681 4.50231 4.15214 4.57394 4.52264C4.64558 4.89315 4.82241 5.23348 5.08207 5.5006C5.34173 5.76771 5.67255 5.94962 6.03271 6.02332C6.39286 6.09702 6.76618 6.05919 7.10544 5.91463C7.44469 5.77007 7.73466 5.52526 7.93868 5.21116C8.14269 4.89706 8.25158 4.52778 8.25158 4.15002C8.25158 3.64346 8.05597 3.15764 7.70778 2.79945C7.35959 2.44125 6.88734 2.24002 6.39492 2.24002V2.24002ZM6.39492 5.39335C6.15588 5.39335 5.92221 5.32043 5.72346 5.18382C5.5247 5.0472 5.36979 4.85301 5.27832 4.62582C5.18684 4.39863 5.16291 4.14864 5.20954 3.90746C5.25617 3.66628 5.37128 3.44473 5.54031 3.27085C5.70934 3.09697 5.92469 2.97855 6.15914 2.93058C6.39358 2.8826 6.63659 2.90723 6.85744 3.00133C7.07828 3.09544 7.26704 3.2548 7.39984 3.45926C7.53265 3.66373 7.60353 3.90411 7.60353 4.15002C7.60267 4.4792 7.47496 4.79459 7.2484 5.02704C7.02183 5.25949 6.71491 5.39002 6.39492 5.39002V5.39335Z" fill="#666666"/>
<path d="M6.39494 0.666687C5.38567 0.667554 4.41774 1.07925 3.70256 1.81185C2.98739 2.54446 2.58308 3.53843 2.57794 4.57669C2.57794 6.13335 3.42688 7.43669 4.04901 8.38669L4.16242 8.56002C4.78139 9.4829 5.44541 10.3729 6.15192 11.2267L6.39818 11.5234L6.64444 11.2267C7.35086 10.3729 8.01487 9.48283 8.63394 8.56002L8.74735 8.38335C9.36623 7.43335 10.2152 6.13335 10.2152 4.57669C10.21 3.53786 9.80528 2.54338 9.0894 1.81068C8.37353 1.07798 7.40477 0.666674 6.39494 0.666687V0.666687ZM8.20623 8.00002L8.08958 8.17669C7.53226 9.03669 6.79349 10 6.39494 10.4767C6.01259 10 5.25762 9.03669 4.7003 8.17669L4.58689 8.00002C4.01337 7.12002 3.22599 5.91669 3.22599 4.56335C3.22599 4.13524 3.30796 3.71133 3.46721 3.31581C3.62647 2.92028 3.85989 2.5609 4.15415 2.25819C4.44842 1.95547 4.79776 1.71534 5.18223 1.55151C5.56671 1.38768 5.97879 1.30335 6.39494 1.30335C6.81109 1.30335 7.22317 1.38768 7.60764 1.55151C7.99212 1.71534 8.34146 1.95547 8.63572 2.25819C8.92999 2.5609 9.16341 2.92028 9.32267 3.31581C9.48192 3.71133 9.56389 4.13524 9.56389 4.56335C9.56389 5.93002 8.77975 7.13335 8.20623 8.00002V8.00002Z" fill="#666666"/>
</svg>
